<svg style="" width="13.937500" height="15.500000" version="1.1" xmlns="http://www.w3.org/2000/svg">
<path d="M14.500000 16.062500 C14.124998 16.437502 13.671878 16.625000 13.140625 16.625000 C12.609372 16.625000 12.156252 16.437502 11.781250 16.062500 L7.531250 11.218750 L3.281250 16.062500 C2.906248 16.437502 2.453128 16.625000 1.921875 16.625000 C1.390622 16.625000 0.937502 16.437502 0.562500 16.062500 C0.187498 15.687498 0.000000 15.239586 0.000000 14.718750 C0.000000 14.197914 0.187498 13.750002 0.562500 13.375000 L5.000000 8.312500 L0.562500 3.281250 C0.187498 2.906248 0.000000 2.453128 0.000000 1.921875 C0.000000 1.390622 0.187498 0.937502 0.562500 0.562500 C0.937502 0.187498 1.390622 -0.000000 1.921875 -0.000000 C2.453128 -0.000000 2.906248 0.187498 3.281250 0.562500 L7.531250 5.406250 L11.781250 0.562500 C12.156252 0.187498 12.609372 -0.000000 13.140625 -0.000000 C13.671878 -0.000000 14.124998 0.187498 14.500000 0.562500 C14.875002 0.937502 15.062500 1.390622 15.062500 1.921875 C15.062500 2.453128 14.875002 2.906248 14.500000 3.281250 L10.062500 8.312500 L14.500000 13.375000 C14.875002 13.750002 15.062500 14.197914 15.062500 14.718750 C15.062500 15.239586 14.875002 15.687498 14.500000 16.062500 Z M23.531250 22.718750" style="fill:black"/>
</svg>