<svg style="" width="32.000000" height="32.000000" version="1.1" xmlns="http://www.w3.org/2000/svg">
<path d="M0.000000 11.000000 C0.000000 11.104167 0.000000 12.052074 0.000000 13.843750 C0.000000 15.635426 0.000000 17.578115 0.000000 19.671875 C0.000000 21.765635 0.000000 23.677075 0.000000 25.406250 C0.000000 27.135425 0.000000 28.000000 0.000000 28.000000 C0.000000 28.416669 0.062499 28.817706 0.187500 29.203125 C0.312501 29.588544 0.489582 29.947915 0.718750 30.281250 L11.062500 19.593750 L0.000000 11.000000 Z M31.750000 8.843750 L16.000000 -0.000000 L0.250000 8.843750 L16.000000 20.656250 L31.750000 8.843750 Z M16.000000 23.000000 L12.750000 20.750000 L2.312500 31.625000 C2.583335 31.750001 2.859374 31.843750 3.140625 31.906250 C3.421876 31.968750 3.708332 32.000000 4.000000 32.000000 L28.000000 32.000000 C28.291668 32.000000 28.578124 31.968750 28.859375 31.906250 C29.140626 31.843750 29.416665 31.750001 29.687500 31.625000 L19.250000 20.750000 L16.000000 23.000000 Z M20.937500 19.593750 L31.281250 30.281250 C31.510418 29.947915 31.687499 29.588544 31.812500 29.203125 C31.937501 28.817706 32.000000 28.416669 32.000000 28.000000 C32.000000 28.000000 32.000000 27.151050 32.000000 25.453125 C32.000000 23.755200 32.000000 21.875010 32.000000 19.812500 C32.000000 17.749990 32.000000 15.843759 32.000000 14.093750 C32.000000 12.343741 32.000000 11.416667 32.000000 11.312500 L20.937500 19.593750 Z M32.000000 30.000000" style="fill:black"/>
</svg>