<svg style="" width="20.000000" height="14.000000" version="1.1" xmlns="http://www.w3.org/2000/svg">
<path d="M1.000000 8.000000 L19.000000 8.000000 C19.291668 8.000000 19.531249 7.906251 19.718750 7.718750 C19.906251 7.531249 20.000000 7.291668 20.000000 7.000000 C20.000000 6.708332 19.906251 6.468751 19.718750 6.281250 C19.531249 6.093749 19.291668 6.000000 19.000000 6.000000 L1.000000 6.000000 C0.708332 6.000000 0.468751 6.093749 0.281250 6.281250 C0.093749 6.468751 0.000000 6.708332 0.000000 7.000000 C0.000000 7.291668 0.093749 7.531249 0.281250 7.718750 C0.468751 7.906251 0.708332 8.000000 1.000000 8.000000 Z M1.000000 2.000000 L19.000000 2.000000 C19.291668 2.000000 19.531249 1.906251 19.718750 1.718750 C19.906251 1.531249 20.000000 1.291668 20.000000 1.000000 C20.000000 0.708332 19.906251 0.468751 19.718750 0.281250 C19.531249 0.093749 19.291668 -0.000000 19.000000 -0.000000 L1.000000 -0.000000 C0.708332 -0.000000 0.468751 0.093749 0.281250 0.281250 C0.093749 0.468751 0.000000 0.708332 0.000000 1.000000 C0.000000 1.291668 0.093749 1.531249 0.281250 1.718750 C0.468751 1.906251 0.708332 2.000000 1.000000 2.000000 Z M1.000000 14.000000 L19.000000 14.000000 C19.291668 14.000000 19.531249 13.906251 19.718750 13.718750 C19.906251 13.531249 20.000000 13.291668 20.000000 13.000000 C20.000000 12.708332 19.906251 12.468751 19.718750 12.281250 C19.531249 12.093749 19.291668 12.000000 19.000000 12.000000 L1.000000 12.000000 C0.708332 12.000000 0.468751 12.093749 0.281250 12.281250 C0.093749 12.468751 0.000000 12.708332 0.000000 13.000000 C0.000000 13.291668 0.093749 13.531249 0.281250 13.718750 C0.468751 13.906251 0.708332 14.000000 1.000000 14.000000 Z M26.000000 22.000000" style="fill:black"/>
</svg>