<svg style="" width="29.375000" height="29.375000" version="1.1" xmlns="http://www.w3.org/2000/svg">
<path d="M11.843750 6.708334 C11.802083 5.874996 11.583335 5.083337 11.187500 4.333334 C10.791665 3.583330 10.375002 2.968753 9.937500 2.489584 C9.499998 2.010414 9.010420 1.572919 8.468750 1.177084 C7.927081 0.781248 7.541668 0.510418 7.312500 0.364584 C7.083332 0.218749 6.885418 0.125000 6.718750 0.083334 C6.510416 -0.000000 6.322918 -0.020833 6.156250 0.020834 C5.156245 0.187501 4.260421 0.437499 3.468750 0.770834 C2.677080 1.104169 2.083335 1.437499 1.687500 1.770834 C1.291665 2.104169 0.947918 2.468748 0.656250 2.864584 C0.364582 3.260419 0.187500 3.531249 0.125000 3.677084 C0.062500 3.822918 0.031250 3.958333 0.031250 4.083334 C-0.010417 4.250001 -0.010417 4.437499 0.031250 4.645834 C0.906255 7.312514 1.947911 9.791655 3.156250 12.083334 C4.364590 14.375012 5.552078 16.291659 6.718750 17.833334 C7.885423 19.375008 9.218743 20.791660 10.718750 22.083334 C12.218758 23.375007 13.510411 24.374997 14.593750 25.083334 C15.677089 25.791670 16.916660 26.458330 18.312500 27.083334 C19.708340 27.708337 20.729164 28.124999 21.375000 28.333334 C22.020837 28.541668 22.822912 28.770832 23.781250 29.020834 C24.197919 29.145834 24.468750 29.229167 24.593750 29.270834 C24.677084 29.312500 24.781250 29.333334 24.906250 29.333334 C25.031251 29.333334 25.156250 29.291667 25.281250 29.208334 C25.406251 29.166667 25.552083 29.093751 25.718750 28.989584 C25.885418 28.885416 26.166665 28.666669 26.562500 28.333334 C26.958335 27.999999 27.312499 27.614586 27.625000 27.177084 C27.937502 26.739581 28.260415 26.145837 28.593750 25.395834 C28.927085 24.645830 29.177083 23.812505 29.343750 22.895834 C29.343750 22.687499 29.302084 22.479168 29.218750 22.270834 C29.177083 22.187500 29.104167 22.062501 29.000000 21.895834 C28.895833 21.729166 28.666669 21.447919 28.312500 21.052084 C27.958332 20.656248 27.562502 20.281252 27.125000 19.927084 C26.687498 19.572915 26.104170 19.208335 25.375000 18.833334 C24.645830 18.458332 23.864588 18.166668 23.031250 17.958334 C22.697915 17.875000 22.385418 17.937499 22.093750 18.145834 C20.218741 19.770842 18.802088 20.666666 17.843750 20.833334 C15.385405 19.624994 13.302092 18.000010 11.593750 15.958334 C9.885408 13.916657 8.968751 12.479171 8.843750 11.645834 C8.843750 11.395832 9.114581 10.843754 9.656250 9.989584 C10.197920 9.135413 10.843746 8.291671 11.593750 7.458334 C11.802085 7.249999 11.885417 7.000002 11.843750 6.708334 Z M30.656250 28.645834" style="fill:black"/>
</svg>